<?xml version="1.0" encoding="UTF-8" standalone="no"?>
<!-- Created with Inkscape (http://www.inkscape.org/) -->

<svg
   xmlns:dc="http://purl.org/dc/elements/1.1/"
   xmlns:cc="http://creativecommons.org/ns#"
   xmlns:rdf="http://www.w3.org/1999/02/22-rdf-syntax-ns#"
   xmlns:svg="http://www.w3.org/2000/svg"
   xmlns="http://www.w3.org/2000/svg"
   xmlns:xlink="http://www.w3.org/1999/xlink"
   xmlns:sodipodi="http://sodipodi.sourceforge.net/DTD/sodipodi-0.dtd"
   xmlns:inkscape="http://www.inkscape.org/namespaces/inkscape"
   width="160.08406"
   height="141.26456"
   id="svg2"
   inkscape:label="Pozadí"
   sodipodi:version="0.32"
   inkscape:version="0.48.1 r9760"
   version="1.0"
   sodipodi:docname="mieru_no_background.svg"
   inkscape:output_extension="org.inkscape.output.svg.inkscape"
   inkscape:export-filename="/home/user"
   inkscape:export-xdpi="48.112762"
   inkscape:export-ydpi="48.112762">
  <defs
     id="defs3318">
    <radialGradient
       inkscape:collect="always"
       xlink:href="#linearGradient5076"
       id="radialGradient2551"
       gradientUnits="userSpaceOnUse"
       gradientTransform="matrix(1.0967739,0,0,1.6248419,697.26457,-79.116414)"
       cx="70.089287"
       cy="531.55872"
       fx="70.089287"
       fy="531.55872"
       r="20.955191" />
    <radialGradient
       inkscape:collect="always"
       xlink:href="#linearGradient3258"
       id="radialGradient2543"
       gradientUnits="userSpaceOnUse"
       gradientTransform="matrix(1,0,0,0.6258348,0,220.83219)"
       cx="96.428596"
       cy="590.19977"
       fx="96.428596"
       fy="590.19977"
       r="19.515108" />
    <radialGradient
       inkscape:collect="always"
       xlink:href="#linearGradient3258"
       id="radialGradient2501"
       gradientUnits="userSpaceOnUse"
       gradientTransform="matrix(1,0,0,0.6258348,0,220.83219)"
       cx="96.428596"
       cy="590.19977"
       fx="96.428596"
       fy="590.19977"
       r="19.515108" />
    <radialGradient
       inkscape:collect="always"
       xlink:href="#linearGradient5076"
       id="radialGradient2499"
       gradientUnits="userSpaceOnUse"
       gradientTransform="matrix(1.0967739,0,0,1.6248419,198.96848,-553.78419)"
       cx="70.089287"
       cy="531.55872"
       fx="70.089287"
       fy="531.55872"
       r="20.955191" />
    <radialGradient
       inkscape:collect="always"
       xlink:href="#linearGradient3258"
       id="radialGradient2493"
       gradientUnits="userSpaceOnUse"
       gradientTransform="matrix(1,0,0,0.6258348,0,220.83219)"
       cx="96.428596"
       cy="590.19977"
       fx="96.428596"
       fy="590.19977"
       r="19.515108" />
    <radialGradient
       inkscape:collect="always"
       xlink:href="#linearGradient5076"
       id="radialGradient2491"
       gradientUnits="userSpaceOnUse"
       gradientTransform="matrix(1.0967739,0,0,1.6248419,198.96848,-553.78419)"
       cx="70.089287"
       cy="531.55872"
       fx="70.089287"
       fy="531.55872"
       r="20.955191" />
    <radialGradient
       inkscape:collect="always"
       xlink:href="#linearGradient3258"
       id="radialGradient3266"
       cx="96.428596"
       cy="590.19977"
       fx="96.428596"
       fy="590.19977"
       r="19.515108"
       gradientTransform="matrix(1,0,0,0.6258348,0,220.83219)"
       gradientUnits="userSpaceOnUse" />
    <radialGradient
       inkscape:collect="always"
       xlink:href="#linearGradient5076"
       id="radialGradient5082"
       cx="70.089287"
       cy="531.55872"
       fx="70.089287"
       fy="531.55872"
       r="20.955191"
       gradientTransform="matrix(1.0967739,0,0,1.6248419,-6.4442107,-334.53794)"
       gradientUnits="userSpaceOnUse" />
    <linearGradient
       id="linearGradient5076">
      <stop
         style="stop-color:#009900;stop-opacity:1;"
         offset="0"
         id="stop5078" />
      <stop
         id="stop5086"
         offset="0.80645162"
         style="stop-color:#004c00;stop-opacity:0.49803922;" />
      <stop
         style="stop-color:#000000;stop-opacity:0;"
         offset="1"
         id="stop5080" />
    </linearGradient>
    <filter
       inkscape:collect="always"
       id="filter3316"
       color-interpolation-filters="sRGB">
      <feGaussianBlur
         inkscape:collect="always"
         stdDeviation="0.24600999"
         id="feGaussianBlur3318" />
    </filter>
    <linearGradient
       id="linearGradient3258">
      <stop
         id="stop3260"
         offset="0"
         style="stop-color:#ffffff;stop-opacity:1;" />
      <stop
         style="stop-color:#ffffff;stop-opacity:0.49803922;"
         offset="0.76344085"
         id="stop3303" />
      <stop
         id="stop3262"
         offset="1"
         style="stop-color:#ffffff;stop-opacity:0;" />
    </linearGradient>
    <filter
       inkscape:collect="always"
       id="filter3299"
       color-interpolation-filters="sRGB">
      <feGaussianBlur
         inkscape:collect="always"
         stdDeviation="0.43058054"
         id="feGaussianBlur3301" />
    </filter>
    <inkscape:perspective
       sodipodi:type="inkscape:persp3d"
       inkscape:vp_x="0 : 526.18109 : 1"
       inkscape:vp_y="0 : 1000 : 0"
       inkscape:vp_z="744.09448 : 526.18109 : 1"
       inkscape:persp3d-origin="372.04724 : 350.78739 : 1"
       id="perspective3324" />
  </defs>
  <sodipodi:namedview
     id="base"
     pagecolor="#ffffff"
     bordercolor="#666666"
     borderopacity="1.0"
     inkscape:pageopacity="0.0"
     inkscape:pageshadow="2"
     inkscape:zoom="1.979899"
     inkscape:cx="112.78576"
     inkscape:cy="52.753127"
     inkscape:document-units="px"
     inkscape:current-layer="layer1"
     showgrid="false"
     inkscape:window-width="1280"
     inkscape:window-height="728"
     inkscape:window-x="0"
     inkscape:window-y="24"
     inkscape:window-maximized="1"
     fit-margin-top="0"
     fit-margin-left="0"
     fit-margin-right="0"
     fit-margin-bottom="0" />
  <metadata
     id="metadata3321">
    <rdf:RDF>
      <cc:Work
         rdf:about="">
        <dc:format>image/svg+xml</dc:format>
        <dc:type
           rdf:resource="http://purl.org/dc/dcmitype/StillImage" />
        <dc:title></dc:title>
      </cc:Work>
    </rdf:RDF>
  </metadata>
  <g
     inkscape:label="Vrstva 1"
     inkscape:groupmode="layer"
     id="layer1"
     transform="translate(-691.97856,-703.83582)">
    <path
       style="fill:none;stroke:#fdd3b7;stroke-width:15;stroke-linecap:round;stroke-linejoin:round;stroke-miterlimit:4;stroke-opacity:1;stroke-dasharray:none"
       d="m 18.182746,4.3043593 c -1.233258,1.5415724 -0.629015,0.8815524 -1.767767,2.0203051 -0.252538,0.2525381 -0.490683,0.5203416 -0.757615,0.7576144 -0.491393,0.436794 -1.026541,0.8228718 -1.515228,1.2626907 -0.35395,0.3185546 -0.673435,0.673435 -1.010153,1.0101525 -0.420897,0.4208969 -0.875315,0.810752 -1.262691,1.262691 -0.624624,0.728729 -1.174786,1.51814 -1.767767,2.272843 -1.6178344,2.059062 -0.4248316,0.503444 -2.2728428,2.777919 -1.5083226,1.856397 -2.9784513,3.747491 -4.5456865,5.555839 -0.6638729,0.766008 -1.3270254,1.533345 -2.020305,2.272844 -0.56995096,0.607947 -1.22544083,1.135053 -1.76776697,1.767766 -0.47126302,0.549807 -0.78843033,1.220544 -1.26269063,1.767767 -0.6237434,0.719704 -1.3468701,1.34687 -2.0203051,2.020306 -1.1785113,1.515228 -2.3363786,3.046742 -3.5355339,4.545686 -0.8509007,1.063626 -0.2304228,-0.04423 -0.7576144,1.010152 -0.084179,0.168359 -0.1194389,0.371977 -0.2525381,0.505077 -0.059524,0.05952 -0.2525382,0.08418 -0.2525382,0 0,-0.08418 0.1772458,0.03765 0.2525382,0 0.1064794,-0.05324 0.1683587,-0.168359 0.2525381,-0.252538 0.5050763,-0.505077 0.981365,-1.040684 1.5152288,-1.515229 0.3145823,-0.279629 0.6955703,-0.477986 1.0101525,-0.757615 0.4448865,-0.395454 0.8417938,-0.841793 1.2626907,-1.26269 0.9259732,-0.673435 1.8792575,-1.310835 2.7779195,-2.020305 0.2941397,-0.232216 3.3445651,-2.960446 3.788072,-3.282996 1.2273098,-0.892589 2.5403417,-1.661568 3.788072,-2.525381 1.8132848,-1.088565 3.3334519,-2.571644 5.0507628,-3.788072 1.23837,-0.87718 2.567682,-1.623355 3.788072,-2.525382 0.719608,-0.531884 1.28925,-1.251728 2.020305,-1.767767 0.70805,-0.499799 1.551722,-0.781943 2.272843,-1.26269 2.050967,-1.367312 1.886915,-1.578924 3.535534,-2.77792 0.490924,-0.357035 1.048899,-0.621544 1.515229,-1.010152 0.879798,-0.7331659 1.423194,-1.5648029 2.272843,-2.2728437 0.233165,-0.1943043 0.510636,-0.3286628 0.757615,-0.5050762 3.657666,-2.6126188 -1.29152,0.9322005 1.767766,-1.5152288 0.438118,-0.3504944 0.481669,-0.091158 0.757615,-0.5050763 0.104412,-0.1566175 0.119439,-0.371977 0.252538,-0.5050763 0.119048,-0.1190476 0.386029,0.1190476 0.505076,0 0.05952,-0.059524 0.03765,-0.3278304 0,-0.2525381 -0.202731,0.4054616 -0.288003,0.8647232 -0.505076,1.2626907 -0.290676,0.5329055 -0.681899,1.0046115 -1.010153,1.5152288 -0.0044,0.00688 -2.524397,4.0392329 -2.525381,4.0406099 -0.802483,1.123477 -1.696995,2.17848 -2.525381,3.282996 -0.686978,0.915971 -1.295271,1.891767 -2.020305,2.777919 -0.792444,0.968543 -1.731058,1.810918 -2.525382,2.77792 -6.173699,7.515808 -0.719194,1.212137 -5.555839,7.576144 -0.795638,1.046893 -1.715856,1.994265 -2.525381,3.030458 -1.295613,1.658385 -2.4357044,3.438324 -3.788072,5.050762 -0.841516,1.003346 -1.8949477,1.810855 -2.7779194,2.77792 -0.886613,0.971052 -1.6760165,2.026662 -2.5253814,3.030457 -1.0026257,1.184922 -2.06700806,2.318545 -3.0304576,3.535534 -2.7105845,3.423896 -0.8464755,1.462418 -3.0304576,4.545687 -0.9731428,1.373848 -2.112922,2.629017 -3.0304576,4.04061 -0.1891548,0.291007 -0.1844701,0.669812 -0.2525382,1.010152 -0.016509,0.08255 -0.084179,0.252539 0,0.252539 0.1190477,0 0.1763257,-0.161084 0.2525382,-0.252539 0.3450664,-0.414079 0.6113167,-0.900112 1.0101525,-1.26269 0.535819,-0.487109 1.2205435,-0.788431 1.7677669,-1.262691 0.7197039,-0.623743 1.3468701,-1.34687 2.0203051,-2.020305 1.0101526,-1.010153 1.9773803,-2.065137 3.0304576,-3.030458 4.3283579,-3.967661 1.805648,-1.048033 6.0609153,-5.3033 1.6420374,-1.642038 3.1816402,-3.383661 4.7982242,-5.050763 2.735745,-2.821237 4.125418,-4.105431 7.071068,-6.81853 1.928417,-1.776173 3.857159,-3.552207 5.808377,-5.303301 1.926283,-1.728715 4.853316,-4.171286 6.81853,-6.060915 1.287202,-1.237694 2.473909,-2.579042 3.788072,-3.788072 4.976924,-4.57877 0.254294,0.476645 4.545686,-4.04061 0.943822,-0.993496 1.808942,-2.0614802 2.77792,-3.0304577 0.464896,-0.4648958 1.013331,-0.8380082 1.515229,-1.2626906 0.59246,-0.5013129 1.175306,-1.013916 1.767766,-1.5152288 0.501898,-0.4246825 1.050333,-0.7977949 1.515229,-1.2626907 0.214616,-0.2146162 0.322969,-0.514804 0.505077,-0.7576144 0.07143,-0.095238 0.13349,-0.2525381 0.252538,-0.2525381 0.08418,0 0.03765,0.1772458 0,0.2525381 -0.135735,0.2714703 -0.385517,0.4786419 -0.505077,0.7576144 -0.136721,0.3190173 -0.07397,0.7125335 -0.252538,1.0101525 -0.338261,0.563769 -0.863315,0.9929688 -1.26269,1.5152288 -0.695508,0.9095106 -1.333327,1.8619489 -2.020305,2.7779195 -2.090412,2.787216 -1.673416,2.066038 -4.040611,5.050763 -1.19282,1.50399 -2.330509,3.051456 -3.535533,4.545686 -1.754877,2.176047 -3.86784,4.560769 -5.808378,6.565992 -1.490188,1.539861 -3.056353,3.004997 -4.545686,4.545686 -0.952417,0.985259 -1.828915,2.041911 -2.777919,3.030458 -1.071776,1.116432 -2.222313,2.156019 -3.282996,3.282995 -1.633859,1.735976 -3.112534,3.617611 -4.798225,5.303301 -1.013654,1.013654 -2.226268,1.809253 -3.282996,2.77792 -0.96532,0.884877 -1.806118,1.900163 -2.777919,2.777919 -1.6397563,1.48107 -3.4335636,2.78748 -5.0507627,4.293148 C 3.4642654,52.300709 2.7979184,53.231017 2.0203051,54.054372 1.3663779,54.746765 0.67343503,55.401242 0,56.074677 c -0.67343503,0.673435 -1.3204923,1.374324 -2.0203051,2.020305 -0.3960671,0.3656 -0.8815523,0.629014 -1.2626906,1.010153 -0.00674,0.0067 -0.9902053,1.488632 -1.0101526,1.515228 -0.071429,0.09524 -0.1992984,0.146059 -0.2525381,0.252538 -0.037646,0.07529 -0.059524,0.312062 0,0.252539 0.1330993,-0.1331 0.1481264,-0.348459 0.2525381,-0.505077 0.2334716,-0.350207 0.473204,-0.699886 0.7576144,-1.010152 0.6435473,-0.702052 1.3468701,-1.34687 2.0203051,-2.020305 0.4710781,-0.471078 3.2995052,-3.299505 3.5355339,-3.535534 1.0943319,-1.094332 2.2372314,-2.142162 3.2829957,-3.282996 0.8084463,-0.881941 1.4477303,-1.911551 2.2728432,-2.777919 0.8630458,-0.906198 1.8930345,-1.640497 2.77792,-2.525382 1.642037,-1.642037 3.182454,-3.382871 4.798224,-5.050762 0.993993,-1.026058 2.020305,-2.020306 3.030458,-3.030458 1.094332,-1.094332 2.139373,-2.240282 3.282995,-3.282996 1.720501,-1.568692 3.538998,-3.026425 5.303301,-4.545686 1.266166,-1.09031 2.519421,-2.19558 3.788072,-3.282996 1.088412,-0.932924 2.217467,-1.818943 3.282996,-2.777919 1.460712,-1.314641 2.82993,-2.72876 4.293148,-4.040611 0.979052,-0.877771 2.078272,-1.618537 3.030458,-2.525381 0.820099,-0.781047 1.420537,-1.779613 2.272843,-2.525381 6.130158,-4.4954497 1.723464,-0.968618 5.808377,-4.7982248 0.652819,-0.6120173 1.368684,-1.1544759 2.020305,-1.767767 0.780215,-0.7343193 1.487708,-1.5437885 2.272844,-2.2728432 0.394983,-0.3667706 0.881552,-0.6290142 1.26269,-1.0101525 0.297619,-0.2976191 0.483699,-0.6905838 0.757615,-1.0101526 0.387375,-0.4519384 0.841793,-0.8417938 1.26269,-1.2626906 0.08418,-0.084179 0.168359,-0.3367176 0.252538,-0.2525382 0.325303,0.3253023 -0.493058,1.2362514 -0.505076,1.2626907 -1.925207,4.2354562 0.714754,-0.3031556 -2.272843,4.2931483 -3.096096,4.7632239 -0.868107,1.3463565 -4.545686,8.3337589 -0.528344,1.003853 -5.119736,9.037969 -5.303301,9.34391 -1.730773,2.884621 -3.549134,5.715843 -5.303301,8.586297 -2.725407,4.459757 -3.45431,6.028067 -6.565992,10.354064 -5.432806,7.552926 -6.118082,8.023877 -10.859139,14.394673 -1.367111,1.837055 -2.631685,3.750654 -4.040611,5.555839 -1.286514,1.648347 -2.730497,3.168572 -4.04061,4.798225 -2.141788,2.664176 -4.142443,5.440802 -6.3134531,8.08122 -0.9458531,1.150362 -2.0700608,2.144748 -3.0304576,3.282996 -3.95981781,4.693117 -2.9499589,3.472683 -5.3033008,7.323606 -2.9791328,4.874944 0.68453856,-1.072958 -3.0304577,4.293148 -0.6642295,0.959443 -0.4101437,0.977893 -0.7576144,2.020305 -0.032821,0.09846 -0.5050762,0.975052 -0.5050762,1.010153 0,0.119047 0.1629456,-0.174145 0.2525381,-0.252539 0.5840714,-0.511062 1.1617382,-1.030405 1.767767,-1.515228 4.8832055,-3.906565 -1.370288,1.48978 4.7982245,-4.04061 1.5094715,-1.35332 3.0872382,-2.632454 4.5456864,-4.040611 0.9858253,-0.951831 1.8289148,-2.041911 2.7779195,-3.030457 1.0717754,-1.116433 2.1696363,-2.208028 3.2829953,-3.282996 1.328158,-1.282359 2.719885,-2.498061 4.040611,-3.788072 12.184401,-11.901043 1.85623,-1.860653 11.869292,-12.374369 1.642036,-1.724138 3.367175,-3.367175 5.050763,-5.050762 2.946278,-3.114637 5.89022,-6.231485 8.838834,-9.343911 1.597075,-1.685801 3.26604,-3.305775 4.798225,-5.050763 1.500653,-1.709077 2.807433,-3.581222 4.293148,-5.303301 2.219395,-2.57248 4.607432,-4.996529 6.81853,-7.576144 1.326161,-1.547188 2.492649,-3.22521 3.788072,-4.798224 1.062211,-1.289829 2.209902,-2.507283 3.282996,-3.788072 1.536721,-1.834152 3.008026,-3.722475 4.545686,-5.555839 0.651386,-0.776653 1.34687,-1.515229 2.020305,-2.272844 0.589256,-0.841793 1.109952,-1.736003 1.767767,-2.525381 0.609699,-0.731639 1.376758,-1.318253 2.020305,-2.020305 0.28441,-0.3102659 0.483698,-0.6905838 0.757614,-1.0101525 0.387376,-0.4519385 0.841794,-0.8417938 1.262691,-1.2626907 0.08418,-0.084179 0.133491,-0.2525381 0.252538,-0.2525381 0.08418,0 0,0.1683587 0,0.2525381 0,0.084179 0.04669,0.1824967 0,0.2525381 -1.542549,2.3138246 0.820896,-2.1468677 -1.010152,1.5152288 -0.252538,0.5050763 -0.467083,1.0310091 -0.757615,1.5152293 -1.28551,2.142516 -2.731109,4.185514 -4.04061,6.313453 -0.771753,1.254099 -1.476557,2.549405 -2.272843,3.788072 -3.913011,6.086907 -8.11608,12.017023 -12.626907,17.677669 -2.646547,3.321158 -5.410613,6.547146 -8.08122,9.848988 -6.713334,8.300121 -4.602399,6.113507 -11.364216,13.889597 -14.983558,17.231092 -4.357789,4.899747 -14.89975,16.667517 -1.870505,2.088006 -3.664806,4.24402 -5.555839,6.313453 -2.571049,2.813601 -5.270179,5.508745 -7.8286822,8.333759 -7.7353248,8.541087 -0.9889127,1.665337 -7.8286821,9.091377 -1.73448418,1.88315 -3.5840662,3.65875 -5.3033009,5.55583 -0.7239127,0.7988 -1.3349986,1.69323 -2.020305,2.52539 -0.4933696,0.59909 -1.0101526,1.17851 -1.5152288,1.76776 -0.5050763,0.58926 -1.0387523,1.15516 -1.5152288,1.76777 -0.1155626,0.14858 -0.440769,0.50508 -0.2525382,0.50508 0.3035131,0 0.5307659,-0.30344 0.7576144,-0.50508 0.5338638,-0.47455 1.0101526,-1.01015 1.5152288,-1.51523 9.3554724,-9.35547 -2.2816675,2.37674 6.0609153,-6.31345 7.9113061,-8.240946 -2.4473374,3.04354 8.5862965,-8.838837 1.5412459,-1.659803 2.99046,-3.404052 4.545686,-5.050763 1.307855,-1.384787 2.693741,-2.69374 4.040611,-4.04061 1.936125,-1.936126 3.872251,-3.872251 5.808377,-5.808377 2.862099,-2.862099 5.631946,-5.819524 8.586296,-8.586297 2.35253,-2.203162 4.897982,-4.191032 7.323606,-6.313453 11.315487,-9.901051 8.510344,-7.434451 17.67767,-15.909903 2.188663,-2.020305 4.377327,-4.04061 6.565991,-6.060915 1.936126,-1.936125 3.80555,-3.941334 5.808377,-5.808377 1.522938,-1.419688 10.51896,-9.163832 13.384521,-12.12183 1.24525,-1.285419 2.306699,-2.739491 3.535534,-4.04061 1.634818,-1.730984 3.337902,-3.396967 5.050763,-5.050763 2.225514,-2.148772 1.965627,-1.547413 3.788072,-3.535534 2.61406,-2.851702 0.181497,-0.641199 2.020305,-2.020305 0.307142,-0.230357 0.505076,-0.67481 0.505076,-0.505076 0,0.609746 -0.312829,0.373121 -0.505076,0.757614 -0.119048,0.238095 -0.179408,0.501658 -0.252538,0.757614 -0.646136,2.261476 0.241046,0.301616 -1.515229,4.293149 -0.454847,1.033743 -1.075175,1.990331 -1.515229,3.030457 -3.309479,7.822405 1.701251,-1.384858 -4.545686,10.85914 -0.8923,1.748907 -2.090287,3.327117 -3.030458,5.050763 -1.081617,1.982964 -1.946672,4.079136 -3.030457,6.060915 -4.258408,7.786802 -5.428946,9.494435 -9.59645,16.162441 -2.800286,4.480458 -7.268814,11.651307 -9.848987,15.657364 -1.150418,1.786176 -2.319882,3.560866 -3.535534,5.303301 -3.405187,4.880769 -7.230925,9.729826 -10.859139,14.394673 -3.898813,5.01276 -7.952062,9.901909 -11.869293,14.899749 -0.77893,0.99381 -1.494636,2.03608 -2.272843,3.03046 -0.73736,0.94218 -1.497988,1.86632 -2.272843,2.77792 -0.656492,0.77234 -1.420867,1.45543 -2.020305,2.27284 -0.333939,0.45537 -0.483376,1.0216 -0.757615,1.51523 -0.147399,0.26532 -0.369341,0.48614 -0.505076,0.75761 -0.03765,0.0753 -0.07529,0.29019 0,0.25254 0.376462,-0.18823 0.673435,-0.50507 1.010153,-0.75761 5.023128,-3.76735 -1.363794,1.2262 4.293148,-4.04061 4.260695,-3.96686 4.702868,-3.53985 8.08122,-7.32361 1.155806,-1.2945 2.097918,-2.77285 3.282996,-4.04061 21.536012,-23.038522 -4.184809,5.68591 13.131983,-13.889595 2.014862,-2.27767 3.991689,-4.590133 6.060915,-6.81853 3.40322,-3.665005 6.896971,-7.244906 10.354064,-10.859139 9.124276,-9.539016 3.559055,-3.652938 12.879445,-13.384521 5.896943,-5.57157 11.069485,-11.825182 16.667515,-17.67767 1.64577,-1.720576 3.41691,-3.318873 5.05076,-5.050763 8.2695,-8.765665 5.27821,-6.054282 11.36422,-12.374368 0.008,-0.008 5.55318,-5.552889 5.55584,-5.555839 1.39879,-1.554208 2.65519,-3.232094 4.04061,-4.798225 0.55214,-0.624163 1.14493,-1.21413 1.76777,-1.767767 0.14068,-0.125053 0.40066,-0.09592 0.50507,-0.252538 0.0934,-0.140083 0,-0.336717 0,-0.505076 0,-0.08418 0,0.168359 0,0.252538 0,0.168359 0.033,0.339987 0,0.505076 -0.0522,0.26103 -0.17941,0.501658 -0.25254,0.757615 -0.68659,2.403089 0.32587,-0.04349 -1.26269,4.545686 -0.35796,1.034129 -0.86984,2.009068 -1.26269,3.030458 -4.02861,10.474396 3.69983,-7.027561 -7.07106,16.414979 -0.89603,1.950167 -1.7177,3.942382 -2.77792,5.808377 -1.04957,1.84724 -2.46871,3.465977 -3.53554,5.3033 -1.96678,3.387231 -3.61819,6.950086 -5.55584,10.354064 -1.68649,2.96275 -5.34482,8.448119 -7.3236,11.364216 -2.00592,2.956091 -4.054999,5.882743 -6.060918,8.838835 -1.192961,1.758048 -2.267784,3.598396 -3.535534,5.303301 -1.176928,1.582765 -2.574992,2.990455 -3.788072,4.545686 -2.020305,2.69374 -4.04061,5.38748 -6.060915,8.08122 -0.841794,1.262691 -1.622085,2.568622 -2.525382,3.78807 -0.782679,1.05662 -1.683587,2.02031 -2.525381,3.03046 -1.178511,1.68359 -2.357023,3.36718 -3.535534,5.05076 -0.589256,0.8418 -1.114552,1.73219 -1.767767,2.52538 -0.529756,0.64328 -1.178511,1.17852 -1.767767,1.76777 -0.673435,0.84179 -1.35428,1.67771 -2.020305,2.52538 -0.361842,0.46053 -0.940858,1.23138 -1.262691,1.76777 -0.09684,0.16141 -0.385637,0.63817 -0.252538,0.50508 0.297619,-0.29762 0.459996,-0.71254 0.757615,-1.01016 0.464896,-0.46489 1.050333,-0.79779 1.515229,-1.26269 1.232353,-1.23235 4.100499,-4.94452 4.798224,-5.80837 0.751751,-0.93074 1.515229,-1.85195 2.272843,-2.77792 4.629077,-5.65776 -0.168785,0.25888 6.565992,-8.333763 0.997518,-1.272695 2.074203,-2.484088 3.030457,-3.788072 0.897433,-1.223772 1.614843,-2.57402 2.525382,-3.788072 1.617033,-2.156044 3.367175,-4.208969 5.050762,-6.313453 1.010153,-1.262691 1.991333,-2.549115 3.030458,-3.788072 1.150069,-1.371236 2.413392,-2.64643 3.535532,-4.04061 1.65737,-2.059151 3.19462,-4.21217 4.79823,-6.313454 0.84179,-1.094332 1.68358,-2.188664 2.52538,-3.282995 0.84179,-0.925974 1.74363,-1.800728 2.52538,-2.77792 0.90473,-1.130914 1.65641,-2.376912 2.52538,-3.535534 1.92119,-2.561592 1.6411,-1.988244 3.283,-4.04061 0.58925,-0.757614 1.17851,-1.515229 1.76776,-2.272843 0.25254,-0.420897 0.46311,-0.870014 0.75762,-1.262691 0.28571,-0.380952 0.67343,-0.673435 1.01015,-1.010152 0.0842,-0.08418 0.1993,-0.146059 0.25254,-0.252539 0.0376,-0.07529 0,-0.336717 0,-0.252538 0,1.937878 0.11905,-0.542935 -0.25254,0.757615 -0.49062,2.943742 0.106,0.279994 -0.75761,2.525381 -0.40943,1.064515 -1.92313,6.011133 -2.02031,6.313453 -0.32584,1.013715 -0.62791,2.036637 -1.01015,3.030458 -0.46028,1.196719 -0.96635,2.376777 -1.51523,3.535534 -0.96695,2.041336 -1.98051,4.061005 -3.03046,6.060915 -1.15593,2.201778 -3.23,5.690693 -4.54568,7.828682 -2.31489,3.761693 -4.19412,6.739769 -6.566,10.354064 -0.83262,1.268757 -1.622081,2.568621 -2.525378,3.788072 -0.782678,1.056616 -1.767086,1.956207 -2.525381,3.030458 -1.265894,1.793346 -2.367348,3.697366 -3.535534,5.555836 -1.46656,2.33317 -3.03033,4.88817 -4.293148,7.32361 -0.468209,0.90297 -0.77251,1.88668 -1.262691,2.77792 -0.438806,0.79783 -1.040428,1.49589 -1.515229,2.27284 -1.338696,2.19059 -1.100761,1.78706 -1.767766,3.78807 -0.08418,0.25254 -0.200333,0.49659 -0.252539,0.75762 -0.03302,0.16509 -0.168358,0.50507 0,0.50507 0.238096,0 0.325892,-0.34829 0.505077,-0.50507 0.49479,-0.43294 1.010152,-0.8418 1.515228,-1.26269 0.505077,-0.58926 0.946512,-1.23968 1.515229,-1.76777 0.616861,-0.5728 1.411389,-0.93399 2.020305,-1.51523 0.310476,-0.29636 5.0014,-5.33659 5.808377,-6.31345 0.879307,-1.06443 1.651106,-2.21444 2.525382,-3.283 1.399207,-1.71014 2.919028,-3.32039 4.293148,-5.05076 0.90066,-1.13416 1.63623,-2.392334 2.52538,-3.535535 0.8801,-1.131554 1.85046,-2.189921 2.77792,-3.282995 1.42957,-1.684847 2.89394,-3.34062 4.29315,-5.050763 0.87428,-1.06856 1.64151,-2.222355 2.52538,-3.282996 0.80114,-0.961365 1.71097,-1.827773 2.52538,-2.777919 0.70157,-0.818496 1.31569,-1.70951 2.02031,-2.525382 0.89568,-1.037105 1.89523,-1.982268 2.77792,-3.030457 0.46644,-0.553902 0.77558,-1.231948 1.26269,-1.767767 2.97188,-2.377504 -0.22205,0.417983 2.0203,-2.272843 0.71567,-0.858796 0.37498,0.512736 1.01015,-0.757615 0.0376,-0.07529 -0.19301,-0.05952 -0.25253,0 -0.1331,0.133099 -0.1557,0.34367 -0.25254,0.505076 -1.50672,2.511198 0.91437,-2.04537 -1.01015,2.525382 -0.43827,1.040881 -1.06492,1.994732 -1.51523,3.030457 -2.08269,4.790183 0.21746,0.806714 -2.52538,5.808378 -0.88864,1.620451 -1.91321,3.164881 -2.77792,4.798224 -0.65197,1.231485 -1.01968,2.6125 -1.76777,3.788072 -1.61817,2.542834 -3.53415,4.883404 -5.3033,7.323603 -0.67206,0.92698 -1.35481,1.84623 -2.02031,2.77792 -0.59724,0.83615 -1.14503,1.70805 -1.76776,2.52538 -0.18066,0.23712 -2.88542,3.53468 -3.53554,4.29315 -0.58235,0.67941 -1.23086,1.30444 -1.76776,2.02031 -0.934598,1.86918 0.0171,0.23204 -1.262695,1.76776 -0.194304,0.23317 -0.34892,0.49736 -0.505076,0.75762 -0.09684,0.16141 -0.119439,0.37198 -0.252538,0.50507 -0.05952,0.0595 -0.252539,0.0842 -0.252539,0 0,-0.0842 0.185195,0.0505 0.252539,0 0.285714,-0.21428 0.505076,-0.50507 0.757614,-0.75761 1.515225,-1.51523 3.030455,-3.03046 4.545685,-4.54569 4.18344,-4.18343 -1.1823,1.28018 4.54569,-5.05076 0.63896,-0.70622 1.36757,-1.32678 2.0203,-2.0203 0.69473,-0.73815 1.30355,-1.55609 2.02031,-2.27285 0.96898,-0.96897 2.06148,-1.808939 3.03046,-2.777916 0.54878,-0.548783 1.01015,-1.178512 1.51522,-1.767767 1.01016,-1.010153 1.9861,-2.055718 3.03046,-3.030458 0.22189,-0.207093 0.49736,-0.34892 0.75762,-0.505076 0.1614,-0.09684 0.31684,-0.252538 0.50507,-0.252538 0.11905,0 -0.1993,0.146058 -0.25254,0.252538 -0.11904,0.238095 -0.12506,0.52392 -0.25253,0.757614 -0.38028,0.697178 -0.87702,1.326096 -1.26269,2.020305 -0.45707,0.822717 -0.74064,1.742294 -1.26269,2.525382 -0.66366,0.995476 -1.56533,1.813126 -2.27285,2.777916 -1.14603,1.56278 -2.13696,3.23545 -3.28299,4.79823 -0.002,0.002 -4.53966,5.54823 -4.54569,5.55584 -1.19282,1.50399 -2.32298,3.05755 -3.53553,4.54568 -0.6403,0.78582 -1.34687,1.51523 -2.02031,2.27285 -1.43105,1.76776 -2.864057,3.53395 -4.293148,5.3033 -0.33868,0.41932 -0.60729,0.90459 -1.010152,1.26269 -0.193139,0.17168 -1.515229,0.58042 -1.515229,1.26269 0,0.0842 0.172679,0.0266 0.252538,0 0.178572,-0.0595 0.348459,-0.14813 0.505077,-0.25254 0.480913,-0.32061 1.119665,-0.78801 1.515228,-1.26269 0.269452,-0.32334 0.477986,-0.69557 0.757615,-1.01015 0.395454,-0.44489 0.841794,-0.8418 1.262691,-1.26269 0.50508,-0.67344 0.9674,-1.38117 1.51523,-2.02031 0.46485,-0.54232 1.06902,-0.95746 1.51523,-1.51523 0.56881,-0.71101 0.94232,-1.56513 1.51523,-2.27284 0.86221,-1.06509 1.88611,-1.99002 2.77792,-3.03046 1.48353,-1.73079 2.38086,-3.22139 3.78807,-5.05076 5.84396,-7.30496 0.59366,-0.6232 5.05076,-6.56599 0.57588,-0.76784 1.25908,-1.45894 1.76777,-2.272846 0.75845,-1.213527 1.25201,-2.580751 2.0203,-3.788072 0.41667,-0.654762 1.11593,-1.10227 1.51523,-1.767767 0.37004,-0.616733 0.4743,-1.359229 0.75762,-2.020305 0.22244,-0.519034 0.52827,-0.999206 0.75761,-1.515229 0.10811,-0.243255 0.18798,-0.499364 0.25254,-0.757614 0.0204,-0.08167 0.0842,-0.252538 0,-0.252538 -0.18823,0 -0.36216,0.130039 -0.50508,0.252538 -0.45194,0.387376 -0.85895,0.825308 -1.26269,1.262691 -0.60695,0.65753 -1.17572,1.34932 -1.76777,2.020305 -3.97515,4.505175 -0.008,0.03646 -6.06091,6.313453 -0.9512,0.986434 -1.80894,2.061484 -2.77792,3.030454 -2.35461,2.35461 -4.05364,3.65493 -6.56599,5.80838 -1.8579,1.59249 -3.6716,3.237 -5.555841,4.79823 -1.376467,1.1405 -5.363614,4.1019 -6.81853,5.05076 -2.365204,1.54252 -7.487467,4.88015 -10.85914,6.56599 -0.90976,0.45488 -1.891402,0.76402 -2.777919,1.26269 -0.469789,0.26426 -0.814207,0.71116 -1.262691,1.01015 -0.07004,0.0467 -0.168359,0 -0.252538,0 -0.08418,0 -0.312062,0.0595 -0.252538,0 2.798345,-2.79834 -1.142917,1.92096 2.272843,-2.0203 1.412059,-1.6293 2.651825,-3.40158 4.04061,-5.05077 2.38364,-2.83057 2.521247,-2.51959 5.050763,-6.06091 0.746858,-1.0456 1.34687,-2.18866 2.020305,-3.283 0.841794,-1.17851 1.677429,-2.36144 2.525381,-3.53553 1.340731,-1.8564 2.69988,-3.69944 4.040611,-5.55584 0.847952,-1.17409 1.761613,-2.305019 2.525381,-3.535533 0.754683,-1.215877 1.241543,-2.587477 2.020303,-3.788072 6.93022,-10.684092 1.6649,-1.178543 6.06092,-9.091373 0.6036,-1.086484 1.19772,-2.178534 1.76776,-3.282995 0.77698,-1.505392 1.45013,-3.064797 2.27285,-4.545687 2.63453,-4.742154 0.4907,0.284487 2.77792,-4.798224 0.75761,-1.683588 0.88388,-2.314933 1.51523,-3.788072 0.0741,-0.173012 0.14812,-0.348459 0.25253,-0.505077 0.066,-0.09905 0.16836,-0.336717 0.25254,-0.252538 0.0842,0.08418 -0.16836,0.168359 -0.25254,0.252538 -0.25253,0.252538 -0.58417,0.445416 -0.75761,0.757615 -0.25856,0.465399 -0.26698,1.039038 -0.50508,1.515229 -0.35515,0.710306 -0.88241,1.323127 -1.26269,2.020305 -0.63094,1.156729 -1.07721,2.413375 -1.76776,3.535534 -0.66178,1.075381 -1.60007,1.961927 -2.27285,3.030457 -5.39549,8.569308 2.7624,-1.928419 -6.56599,10.606602 -2.13452,2.868264 -4.841245,5.285777 -7.323605,7.828682 -2.204109,2.257868 -4.279777,4.643839 -6.565992,6.818529 -1.171634,1.11448 -2.538548,2.00406 -3.788072,3.03046 -5.007051,4.11293 -2.16206,2.16502 -8.838834,6.81853 -1.748758,1.21883 -3.498055,2.16546 -5.303301,3.28299 -0.925973,0.58926 -1.851947,1.17851 -2.77792,1.76777 -0.336717,0.33672 -0.62266,0.73337 -1.010152,1.01015 -0.02952,0.0211 -1.449408,0.47217 -1.515229,0.50508 -0.07529,0.0376 0.193014,0.0595 0.252538,0 0.381138,-0.38114 0.647575,-0.86386 1.010153,-1.26269 0.48048,-0.52853 1.029192,-0.99181 1.515228,-1.51523 0.608895,-0.65573 1.150637,-1.37232 1.767767,-2.02031 1.067324,-1.12068 2.263882,-2.11829 3.282996,-3.28299 0.753964,-0.86167 1.356772,-1.84483 2.020305,-2.77792 2.030257,-2.85505 4.089279,-5.69046 6.060915,-8.5863 0.723154,-1.06213 1.335671,-2.195632 2.020306,-3.282993 0.746484,-1.185592 1.515228,-2.357022 2.272843,-3.535534 1.34687,-2.272843 2.65001,-4.572175 4.04061,-6.818529 3.404009,-5.498784 1.695807,-2.159764 5.303301,-7.828682 1.4804,-2.326344 2.816425,-4.742389 4.293148,-7.071068 0.712805,-1.124035 1.594295,-2.137954 2.272845,-3.282996 0.67172,-1.133534 1.08395,-2.409252 1.76777,-3.535534 0.75162,-1.237969 1.73423,-2.322442 2.52538,-3.535534 1.02731,-1.281012 1.39723,-2.931093 2.27284,-4.293148 0.35553,-0.553043 0.898,-0.968187 1.26269,-1.515229 0.29564,-0.44346 0.35834,-1.621026 0.75761,-2.020305 0.0595,-0.05952 0.0467,0.182497 0,0.252538 -1.52363,2.285454 0.49856,-1.500874 -0.75761,1.262691 -1.08178,2.379912 -0.99833,1.943847 -2.52538,4.293148 -2.04694,3.14914 -2.68149,4.430039 -5.3033,7.828682 -0.29603,0.383736 -6.637399,7.625461 -6.818531,7.828683 -2.260632,2.536318 -4.416097,5.173711 -6.81853,7.576144 -1.562429,1.562429 -3.396676,2.8281 -5.050763,4.293148 -7.84956,6.952468 0.702203,0.135352 -11.111678,9.848987 -1.300446,1.069256 -2.716774,1.990301 -4.04061,3.030461 -1.033949,0.81239 -1.994265,1.71585 -3.030457,2.52538 -1.585321,1.23853 -5.732537,4.31113 -7.828683,5.80838 -0.836144,0.59724 -1.698154,1.15823 -2.525381,1.76776 -0.772687,0.56935 -1.474247,1.23537 -2.272843,1.76777 -2.592282,1.72819 -0.751597,-0.006 -2.020305,1.26269 -0.08418,0.0842 0.183343,-0.15567 0.252538,-0.25254 0.352827,-0.49396 0.612592,-1.0565 1.010152,-1.51523 0.701712,-0.80966 1.515229,-1.51523 2.272844,-2.27284 0.673435,-0.84179 1.325912,-1.70079 2.020305,-2.52538 7.7214,-9.169165 -5.113553,6.51821 4.545686,-5.55584 1.158096,-1.44762 2.423219,-2.810062 3.535534,-4.293149 0.910539,-1.214052 1.598447,-2.586491 2.525381,-3.788072 1.349637,-1.749529 2.893941,-3.34062 4.293149,-5.050763 0.874276,-1.06856 1.653265,-2.212672 2.525381,-3.282995 2.601174,-3.19235 5.428726,-6.194074 8.08122,-9.343911 1.041589,-1.236887 1.978107,-2.560329 3.030458,-3.788072 0.969214,-1.13075 2.03221,-2.177794 3.030458,-3.282996 1.358876,-1.504471 2.634384,-3.085376 4.04061,-4.545687 0.785561,-0.815775 1.788348,-1.412971 2.525381,-2.272843 0.790095,-0.921777 1.272075,-2.074385 2.020305,-3.030457 0.771258,-0.985497 1.719299,-1.820698 2.525381,-2.77792 3.929408,-5.239214 -0.284052,0.180324 2.525378,-3.030458 0.27717,-0.316757 0.49469,-0.681487 0.75762,-1.010152 0.0744,-0.09296 0.1993,-0.146059 0.25254,-0.252538 0.0376,-0.07529 -0.0842,-0.252538 0,-0.252538 0.0842,0 0.0266,0.172678 0,0.252538 -0.0595,0.178571 -0.16836,0.336717 -0.25254,0.505076 -0.25254,0.505076 -0.4899,1.018033 -0.75762,1.515229 -2.883684,5.35542 1.50348,-3.065683 -2.777916,4.545686 -0.978366,1.739318 -1.737313,3.60049 -2.777919,5.303301 -0.816501,1.336092 -1.918819,2.478966 -2.77792,3.788072 -0.910921,1.388071 -1.683587,2.862099 -2.525381,4.293148 -1.767767,2.609561 -3.506431,5.239076 -5.303301,7.828683 -2.428157,3.499402 -6.58762,9.036098 -9.091373,11.869292 -1.143759,1.294253 -2.544745,2.336611 -3.788072,3.535534 -1.114044,1.074257 -2.188663,2.188664 -3.282995,3.282996 -1.34687,1.094331 -2.753748,2.118686 -4.040611,3.282996 -2.251523,2.03709 -4.330281,4.25902 -6.565991,6.31345 -0.880952,0.80953 -1.871744,1.49166 -2.77792,2.27285 -1.535503,1.32371 -3.036214,2.68729 -4.545686,4.04061 -8.242706,7.39001 1.72959,-1.57414 -4.798225,4.54568 -1.392306,1.30529 -2.886305,2.49847 -4.293148,3.78807 -0.702051,0.64355 -1.34687,1.34687 -2.020305,2.02031 -0.08418,0.0842 -0.371586,0.25254 -0.252538,0.25254 0.655177,0 1.173984,-1.33346 1.515229,-1.76777 2.537269,-3.22925 1.623613,-1.27011 4.798224,-5.55584 0.764833,-1.03252 1.315313,-2.20872 2.020305,-3.28299 1.063272,-1.62023 2.197142,-3.19305 3.282996,-4.79823 0.850306,-1.25697 1.674258,-2.53165 2.525382,-3.78807 0.916688,-1.35321 1.909214,-2.65611 2.777919,-4.04061 1.826162,-2.910446 3.409224,-5.972125 5.303301,-8.838835 1.225114,-1.854227 2.745156,-3.497517 4.04061,-5.303301 1.48347,-2.067867 2.801504,-4.251475 4.293148,-6.313454 1.371772,-1.896272 2.856264,-3.708416 4.293149,-5.555839 7.329376,-9.423484 4.27757,-5.653344 10.354063,-12.879444 1.767767,-2.104485 3.535534,-4.208969 5.303301,-6.313454 1.010152,-1.094332 2.068465,-2.146096 3.030458,-3.282996 0.891816,-1.053965 1.683587,-2.188663 2.525381,-3.282995 1.094332,-1.262691 2.186578,-2.527192 3.282996,-3.788072 0.587174,-0.675251 1.230863,-1.304434 1.767769,-2.020305 2.19459,-3.511343 0.27126,-0.637385 2.52538,-3.535534 0.61251,-0.322707 0.44438,-1.045377 0.75761,-1.515229 0.0467,-0.07004 0.19302,0.05952 0.25254,0 0.0595,-0.05952 0.0799,-0.279158 0,-0.252538 -1.06581,0.355271 -1.99169,2.110806 -2.52538,2.777919 -0.559,0.698752 -1.15335,1.369746 -1.767767,2.020305 -6.563971,6.950087 2.576137,-3.472713 -6.060915,7.323606 -1.118003,1.397504 -2.370827,2.681785 -3.535534,4.04061 -1.360787,1.587585 -2.669587,3.219472 -4.04061,4.798225 -3.59377,4.138281 -8.579064,9.450285 -12.121831,13.131983 -1.650905,1.715647 -3.323468,3.412047 -5.050762,5.050763 -1.556963,1.477118 -3.190757,2.871157 -4.798225,4.293148 -2.7699,2.450297 -5.521783,4.921711 -8.333758,7.323606 -1.22955,1.05024 -2.525382,2.020305 -3.788072,3.030457 -1.262691,1.010153 -2.499148,2.054 -3.788072,3.030458 -1.489834,1.128662 -3.024749,2.196612 -4.545687,3.282996 -0.836144,0.597245 -1.709146,1.14359 -2.525381,1.76777 -0.616498,0.47144 -1.14192,1.05627 -1.767767,1.51523 -1.403303,1.02908 -2.129193,1.11904 -3.282996,2.27284 -0.133099,0.1331 -0.119439,0.37198 -0.252538,0.50508 -0.05952,0.0595 -0.279158,0.0798 -0.252538,0 0.09598,-0.28794 0.342128,-0.50156 0.505076,-0.75762 4.345285,-6.828304 -2.008422,2.95481 2.77792,-4.04061 0.619777,-0.905828 1.158947,-1.86469 1.767767,-2.777919 1.33416,-2.001241 4.215865,-6.026026 5.555839,-8.333758 0.813069,-1.400286 1.515228,-2.862099 2.272843,-4.293149 1.431049,-2.272843 2.931375,-4.503515 4.293148,-6.818529 1.164955,-1.980423 2.100865,-4.090697 3.282996,-6.060916 1.093093,-1.821822 2.415103,-3.498162 3.535534,-5.3033 1.910966,-3.078779 3.610402,-6.286797 5.555839,-9.343911 1.003466,-1.576876 2.188664,-3.030458 3.282995,-4.545687 4.985018,-6.902332 2.325322,-3.363399 9.091373,-11.869292 8.521917,-10.713267 -1.702101,2.011575 5.555839,-6.565992 1.04451,-1.234421 2.0006,-2.541401 3.030458,-3.788072 0.569906,-0.689886 1.185413,-1.340892 1.767767,-2.020305 0.42787,-0.499182 0.83482,-1.016046 1.26269,-1.515229 1.716812,-2.002947 1.249221,-1.501758 2.525382,-2.777919 0.168359,-0.168359 0.373005,-0.306969 0.505076,-0.505076 0.04669,-0.07004 -0.08418,-0.252538 0,-0.252538 0.08418,0 0.02662,0.172678 0,0.252538 -0.05952,0.178571 -0.168359,0.336717 -0.252538,0.505076 -0.995553,1.991105 -0.07556,0.417311 -2.525381,3.030458 -3.783167,4.035378 0.44014,-0.162607 -4.040611,4.798224 -1.556533,1.723305 -3.229062,3.33895 -4.798224,5.050763 -0.01187,0.01295 -7.06595,8.075988 -7.071068,8.08122 -2.539445,2.595877 -5.182714,5.088934 -7.828682,7.576144 -2.649146,2.490197 -7.703518,6.80642 -10.354064,9.091373 -4.163658,3.589361 -10.665585,9.372407 -15.404826,12.879445 -2.045735,1.513844 -4.208969,2.862099 -6.313453,4.293148 -2.946278,2.188664 -5.916713,4.345179 -8.838835,6.565992 -0.689365,0.523917 -7.312926,5.864246 -7.828682,6.313453 -1.302462,1.134403 -2.51696,2.366111 -3.788072,3.535534 -0.833455,0.766778 -1.678927,1.520439 -2.525381,2.272843 -0.6688114,0.594499 -1.3875587,1.13502 -2.0203054,1.767767 -0.5450034,0.545004 -1.7232613,2.136744 -2.2728432,2.777924 -0.1549504,0.18077 -0.3367175,0.67343 -0.5050763,0.50507 -0.1683588,-0.16836 0.3009113,-0.38258 0.5050763,-0.50507 0.6456263,-0.38738 1.4179664,-0.5584 2.020305,-1.01016 0.7619048,-0.57143 1.3084867,-1.387575 2.0203056,-2.020302 0.805723,-0.716199 1.716095,-1.308134 2.525381,-2.020305 1.296645,-1.141048 2.518907,-2.363998 3.788072,-3.535534 0.919545,-0.848811 1.893034,-1.640496 2.777919,-2.525381 0.884885,-0.884885 1.683588,-1.851947 2.525382,-2.77792 1.851946,-1.599408 3.749882,-3.147064 5.555839,-4.798224 1.142187,-1.044286 2.115964,-2.26655 3.282995,-3.282996 1.447524,-1.260747 3.04992,-2.332417 4.545687,-3.535534 2.37681,-1.911782 4.683924,-3.909513 7.071068,-5.808377 1.317577,-1.048073 2.709357,-1.999811 4.04061,-3.030458 1.278626,-0.989904 2.509945,-2.039909 3.788072,-3.030457 2.089293,-1.619203 4.218321,-3.186585 6.313453,-4.798225 1.187962,-0.913817 2.309829,-1.915386 3.535534,-2.777919 1.050834,-0.739476 2.213859,-1.307548 3.282996,-2.020305 0.952667,-0.635112 1.848742,-1.351298 2.777919,-2.020306 1.175327,-0.846235 2.389534,-1.639836 3.535534,-2.525381 3.020696,-2.334174 1.020088,-1.018984 3.282996,-3.030458 0.314582,-0.279628 0.68681,-0.488162 1.010152,-0.757614 0.18291,-0.152425 0.306969,-0.373005 0.505077,-0.505076 0.07004,-0.04669 0.252538,-0.08418 0.252538,0 0,0.199915 -0.686927,1.138986 -0.757615,1.26269 -1.311377,2.294911 0.669031,-0.440699 -2.020305,3.282996 -0.561949,0.778084 -1.252477,1.463103 -1.767767,2.272843 -0.667279,1.048582 -1.111601,2.227425 -1.767767,3.282996 -1.281879,2.062154 -2.727594,4.018446 -4.04061,6.060915 -2.799822,4.355279 -2.741025,4.985193 -6.060915,9.091373 -2.599765,3.215499 -6.964065,8.324907 -10.354063,11.364216 -3.467142,3.108472 -7.066529,6.06622 -10.606602,9.091373 -1.089809,0.931292 -2.20416,1.833938 -3.282996,2.77792 -0.941787,0.824063 -1.776786,1.774531 -2.777919,2.525381 -1.363602,1.022701 -2.88365,1.819461 -4.293149,2.777919 -3.141293,2.13608 -0.920087,0.82432 -3.788072,3.03046 -0.481143,0.37011 -1.000471,0.68843 -1.515228,1.01015 -0.0018,0.001 -0.757615,0.31212 -0.757615,0.50508 0,0.0842 0.186805,0.0526 0.252538,0 0.371843,-0.29748 0.6292,-0.72444 1.010153,-1.01016 5.69801,-4.273503 -2.445116,2.70626 4.545686,-3.53553 1.512246,-1.350219 3.063613,-2.657341 4.545687,-4.04061 1.044364,-0.97474 2.020305,-2.020305 3.030457,-3.030457 7.960898,-7.960898 -2.605363,2.653988 8.838835,-9.091373 1.329266,-1.364247 2.69374,-2.69374 4.04061,-4.04061 1.515229,-1.851947 2.917484,-3.802391 4.545687,-5.555839 2.754206,-2.966069 5.724197,-5.724198 8.586296,-8.586297 2.912812,-2.912812 7.574054,-7.652339 10.606602,-10.354063 2.720178,-2.423432 5.567688,-4.700151 8.333758,-7.071068 1.358825,-1.164707 2.661853,-2.394493 4.04061,-3.535534 1.063641,-0.880254 2.238728,-1.62223 3.282996,-2.525381 19.27888,-16.673626 0.07638,-1.037257 8.08122,-6.81853 0.873931,-0.631172 1.677713,-1.35428 2.525382,-2.020305 0.330959,-0.260039 0.690584,-0.483698 1.010152,-0.757614 0.271163,-0.232426 0.505077,-0.505077 0.757615,-0.757615 0.589255,-0.589256 1.178511,-1.178511 1.767771,-1.767767 0.16835,-0.168359 0.33671,-0.336717 0.50507,-0.505076 0.16836,-0.168359 0.30697,-0.373005 0.50508,-0.505076 0.28861,-0.19241 0.31035,0.331632 0.50507,-0.252538 0.0532,-0.15972 -0.0753,-0.354492 0,-0.505077 0.0376,-0.07529 0.17725,0.03765 0.25254,0 0.10778,-0.05389 1.19329,-1.170158 1.26269,-1.26269 0.11294,-0.150585 0.13495,-0.358093 0.25254,-0.505077 2.45512,-2.45512 -0.22662,0.386339 1.01015,-1.26269 -0.21609,-1.171627 0.543,-0.29046 0.75762,-0.505077 0.0595,-0.05952 -0.0266,-0.172678 0,-0.252538 0.0595,-0.178571 0.16836,-0.336717 0.25254,-0.505076 0.25253,-0.505076 0.42939,-1.05572 0.75761,-1.515229 0.10941,-0.15317 0.38258,-0.109622 0.50508,-0.252538 0.39504,-0.460889 0.66204,-1.017934 1.01015,-1.515229 0.24137,-0.344812 0.55321,-0.642222 0.75761,-1.010152 0.22016,-0.396273 0.2617,-0.880243 0.50508,-1.262691 0.33239,-0.398871 1.63627,-1.910933 2.02031,-2.525381 0.75171,-1.202746 0.5314,-1.434646 1.01015,-3.030458 0.7154,-1.430802 -0.0941,0.376462 0.25254,-1.010153 0.0456,-0.18261 0.19301,-0.326504 0.25253,-0.505076 0.0266,-0.07986 0.0595,-0.312062 0,-0.252538 -0.1331,0.133099 -0.13203,0.360473 -0.25253,0.505076 -0.30485,0.36582 -0.69379,0.654244 -1.01016,1.010153 -1.05456,1.186383 -1.24493,1.686263 -2.27284,3.030458 -2.80276,3.665142 -1.09238,1.41319 -4.04061,4.545686 -0.69472,0.738143 -1.34023,1.521182 -2.0203,2.272843 -0.87327,0.965192 -3.579933,3.984754 -4.798229,5.050763 -0.633515,0.554325 -1.391141,0.955971 -2.020305,1.515229 -0.889773,0.790909 -1.656885,1.711165 -2.525382,2.525381 -1.756469,1.64669 -1.143537,0.820059 -2.777919,2.272843 -0.35591,0.316364 -0.638311,0.712679 -1.010153,1.010153 -0.06573,0.05259 -0.168359,0 -0.252538,0 -0.08418,0 -0.290184,0.07529 -0.252538,0 0.106479,-0.212959 0.373005,-0.306969 0.505076,-0.505077 0.208823,-0.313235 0.305552,-0.690913 0.505076,-1.010152 2.018523,-3.229637 -1.026046,2.695702 2.272844,-3.535534 0.299958,-0.566588 0.453673,-1.203305 0.757614,-1.767767 0.287791,-0.534469 0.726133,-0.978746 1.010153,-1.515229 0.475908,-0.898939 0.827265,-1.858688 1.26269,-2.777919 3.077204,-6.496319 -0.802349,1.994689 1.767767,-3.788072 0.413101,-0.929477 0.827266,-1.858689 1.262691,-2.77792 0.322316,-0.680445 0.739869,-1.317567 1.010153,-2.020305 0.15408,-0.400622 0.1396,-0.848583 0.25254,-1.26269 0.14008,-0.513638 0.30735,-1.020911 0.50507,-1.515229 0.10952,-0.273794 0.97724,-1.58107 0.75762,-2.020305 -0.0376,-0.07529 -0.16836,0 -0.25254,0 -1.14963,0 -0.0144,-0.119048 -0.75761,0.252538 -0.47619,0.238095 -1.025883,0.295355 -1.515233,0.505076 -0.346023,0.148296 -0.660617,0.365262 -1.010153,0.505076 -0.494318,0.197728 -1.028718,0.28885 -1.515228,0.505077 -1.032045,0.458686 -2.010781,1.029668 -3.030458,1.515228 -2.082712,0.991768 -4.107096,1.764569 -6.313453,2.525382 -1.082418,0.373247 -2.169648,0.742949 -3.282996,1.010152 -0.995809,0.238994 -2.039145,0.24807 -3.030458,0.505077 -1.288397,0.334028 -2.491164,0.963404 -3.788072,1.26269 -1.358535,0.313508 -3.361924,0.252538 -4.798224,0.252538 -0.505077,0 -1.010153,0 -1.515229,0 -0.168359,0 -0.336718,0 -0.505076,0 -0.08418,0 -0.252539,0.08418 -0.252539,0 0,-0.266198 0.179408,-0.501658 0.252539,-0.757614 0.09535,-0.333726 0.09732,-0.699714 0.252538,-1.010153 0.805572,-1.611144 1.421211,-2.21053 2.525381,-3.535533 1.018966,-1.222759 1.559381,-1.964237 2.777919,-3.030458 0.811295,-0.709883 1.688714,-1.3405124 2.525382,-2.0203051 0.510265,-0.4145907 1.050333,-0.7977949 1.515229,-1.2626907 4.073505,-4.0735054 -1.286281,0.5055729 3.535534,-3.2829957 0.516974,-0.4061942 0.994108,-0.8618291 1.515228,-1.2626907 0.57397,-0.441515 1.20231,-0.810325 1.767767,-1.2626907 1.510514,1.0761439 0.594185,-0.8467224 0.757615,-1.0101525 0.05952,-0.0595238 0.168358,0 0.252538,0 0.08418,0 0.312062,-0.0595238 0.252538,0 -0.133099,0.1330993 -0.358093,0.1349513 -0.505076,0.2525381 -0.278882,0.2231054 -0.505077,0.5050763 -0.757615,0.7576144 -0.589255,0.4208969 -1.193797,0.8211757 -1.767767,1.2626907 -0.52112,0.4008616 -1.010152,0.8417938 -1.515228,1.2626907 -0.841794,0.5892556 -1.699058,1.1570062 -2.525382,1.7677669 -8.414263,6.2192376 -1.38357,2.6642159 -20.708127,9.8489876 -0.710122,0.264019 -1.515229,0 -2.272843,0 -0.252538,0 -0.512616,0.06125 -0.757614,0 -0.115494,-0.02887 -0.168359,-0.168359 -0.252539,-0.252538 -0.08418,-0.08418 -0.214892,-0.1396 -0.252538,-0.252539 -0.05324,-0.159719 0,-0.336717 0,-0.505076 0,-0.505076 0,-1.010152 0,-1.515229 0,-0.673435 0,-1.34687 0,-2.020305 0,-0.505076 -0.09035,-1.018299 0,-1.515229 0.08109,-0.4460073 0.315109,-0.8510943 0.505077,-1.2626903 1.444737,-3.1302647 0.460998,-0.9366897 2.020305,-3.5355338 0.512537,-0.854229 0.58787,-1.4630586 1.26269,-2.2728432 0.120503,-0.144603 0.371977,-0.1194389 0.505077,-0.2525382 0.133099,-0.1330993 0.252538,-0.6933071 0.252538,-0.5050762 0,0.2661985 -0.168359,0.5050762 -0.252538,0.7576144 -0.08418,0.2525381 -0.115581,0.529351 -0.252539,0.7576144 -0.122499,0.2041649 -0.391063,0.2960535 -0.505076,0.5050762 -0.397002,0.7278375 -0.620001,1.5413102 -1.010152,2.2728432 -0.312565,0.5860592 -1.968673,2.8484661 -2.272844,3.2829958 -1.075851,1.5369307 -2.534337,3.7602427 -3.788072,5.3033007 -2.049441,2.522389 -1.984759,2.095023 -4.545686,4.798225 -0.615421,0.64961 -1.158873,1.364573 -1.767767,2.020305 -0.486036,0.523424 -1.026699,0.994131 -1.515229,1.515229 -0.774575,0.826213 -1.446629,1.750805 -2.272843,2.525381 -2.098463,1.967309 -1.220528,0.645327 -3.282996,2.020305 -0.547041,0.364694 -1.023835,0.825897 -1.515229,1.262691 -0.252538,0.252538 -0.505076,0.505076 -0.757614,0.757614 -0.252538,0.08418 -0.544656,0.09282 -0.757614,0.252538 -0.150585,0.112939 -0.168359,0.336718 -0.252538,0.505076 -0.168359,0.168359 -0.30697,0.373005 -0.505077,0.505077 -0.391883,0.261255 -0.16431,-0.428995 -0.505076,0.252538 -0.03765,0.07529 -0.08418,0.252538 0,0.252538 0.188231,0 0.362161,-0.130039 0.505076,-0.252538 0.451939,-0.387376 0.790891,-0.899768 1.262691,-1.262691 0.62946,-0.4842 1.34687,-0.841794 2.020305,-1.26269 1.094332,-0.673436 2.26624,-1.234631 3.282996,-2.020306 0.847805,-0.655122 1.456479,-1.578934 2.272843,-2.272843 0.872393,-0.741533 1.870394,-1.322208 2.777919,-2.020305 1.2817,-0.985922 2.506373,-2.044535 3.788072,-3.030457 3.787394,-2.91338 1.695168,-1.168331 5.555839,-3.788072 1.449456,-0.98356 2.843693,-2.046899 4.293149,-3.030458 5.299675,-3.5962085 0.314702,-0.142322 5.303301,-3.0304577 6.397632,-3.7038927 0.224478,-0.3367175 3.030457,-2.0203051 0.161407,-0.096844 0.604153,-0.4125842 0.505076,-0.2525381 -1.179797,1.9058258 -2.49084,3.7279209 -3.788072,5.5558389 -1.110954,1.565435 -2.409678,2.990934 -3.535534,4.545686 -0.983339,1.357946 -4.529056,6.66264 -6.060915,8.333759 -0.925973,1.010152 -2.111937,1.760986 -3.030457,2.777919 -1.445167,1.600006 -2.617374,3.431218 -4.04061,5.050763 -1.021606,1.162517 -2.210328,2.167421 -3.282996,3.282996 -1.032237,1.073526 -1.994777,2.212792 -3.030458,3.282996 -1.490189,1.539861 -3.030457,3.030457 -4.545686,4.545686 -0.925973,0.925973 -1.830668,1.873725 -2.77792,2.777919 -0.905219,0.864073 -1.858374,1.676571 -2.777919,2.525382 -1.269165,1.171536 -2.491428,2.394486 -3.788072,3.535534 -0.809286,0.712171 -1.674443,1.358463 -2.525382,2.020305 -0.664471,0.516811 -1.40731,0.938293 -2.020305,1.515229 -4.742108,5.269009 -0.373824,0.911713 -3.535534,3.282995 -0.285714,0.214286 -0.505076,0.505077 -0.757614,0.757615 -0.168359,0.168358 -0.695552,0.647933 -0.505076,0.505076 0.525969,-0.394477 0.994108,-0.861829 1.515229,-1.262691 0.573969,-0.441515 1.241308,-0.76548 1.767767,-1.26269 1.374412,-1.298056 3.412366,-3.840451 4.798224,-5.303301 2.046859,-2.160574 4.249044,-4.169643 6.313453,-6.313454 11.663083,-12.111662 -5.772601,5.806123 5.303301,-6.060915 1.462111,-1.566547 3.030458,-3.030457 4.545687,-4.545686 1.094332,-1.094332 2.144055,-2.23517 3.282995,-3.282996 0.967694,-0.890278 2.100666,-1.59559 3.030458,-2.525381 6.869037,-7.727667 1.447885,-1.986634 6.313453,-6.565992 1.213667,-1.142274 2.357023,-2.357022 3.535534,-3.535534 0.168359,-0.168358 0.336718,-0.336717 0.505077,-0.505076 0.08418,-0.08418 0.252538,-0.371586 0.252538,-0.252538 0,0.188012 -0.689367,1.16032 -0.757615,1.262691 -1.521385,2.282077 -1.21914,1.902732 -3.535534,4.798224 -0.821426,1.026783 -1.718096,1.99252 -2.525381,3.030458 -0.961325,1.235989 -1.7717,2.588348 -2.777919,3.788072 -1.18639,1.414541 -2.595535,2.631248 -3.788072,4.04061 -2.513632,2.970656 -4.812273,6.118774 -7.323606,9.091373 -1.615208,1.911878 -3.424469,3.653382 -5.050763,5.555839 -2.836405,3.318058 -5.511582,6.771357 -8.333758,10.101525 -5.71362,6.742071 -2.86703,2.930248 -8.838835,9.596449 -2.150603,2.400673 -4.186854,4.901645 -6.313454,7.323606 -6.6678807,7.593976 0.924018,-1.308558 -5.3033004,5.808377 C 5.7995199,86.028607 3.9568604,88.24752 2.7779195,89.662249 2.3570226,90.167325 1.9520228,90.686084 1.5152288,91.177478 1.0406832,91.711341 0.44621075,92.134943 0,92.692706 c -0.11758686,0.146984 -0.14812647,0.348459 -0.25253813,0.505077 -0.0660357,0.09905 -0.25253814,0.13349 -0.25253814,0.252538 0,0.08418 0.19301433,0.05952 0.25253814,0 C -0.11943885,93.317222 -0.08417938,93.113603 0,92.945245 0.87592312,91.193398 0.60738986,91.70042 2.0203051,89.157173 3.049084,87.30537 3.2601481,87.316246 3.788072,85.116562 4.1078725,83.78406 4.2017827,82.402438 4.5456864,81.075952 4.792958,80.12219 5.2851578,79.245417 5.555839,78.298033 c 0.2358383,-0.825435 0.2242634,-1.714145 0.5050762,-2.525382 0.480895,-1.389252 1.2130916,-2.679134 1.767767,-4.04061 0.3717485,-0.912473 0.5695155,-1.896645 1.0101525,-2.777919 0.4908459,-0.981692 1.2030743,-1.836766 1.7677673,-2.77792 4.162639,-7.284619 0.133305,-0.421516 3.535534,-5.808377 0.524216,-0.830009 0.944632,-1.726546 1.515228,-2.525381 0.695402,-0.973562 1.609193,-1.782443 2.272844,-2.77792 0.355613,-0.53342 0.427775,-1.218036 0.757614,-1.767767 1.339625,-1.786166 1.684262,-2.126708 2.777919,-4.04061 2.536968,-4.439693 -0.66603,0.531633 1.515229,-2.272843 0.372678,-0.479157 0.621544,-1.048898 1.010153,-1.515229 0.05389,-0.06467 0.193014,0.05952 0.252538,0 0.05952,-0.05952 0.05952,-0.312062 0,-0.252538 -0.214616,0.214616 -0.336718,0.505076 -0.505076,0.757615 -0.336718,0.505076 -0.645937,1.029607 -1.010153,1.515228 -0.394477,0.52597 -0.841794,1.010153 -1.262691,1.515229 -0.673435,1.262691 -1.205737,2.611474 -2.020305,3.788072 -0.712318,1.028905 -1.70743,1.830819 -2.525381,2.77792 -3.806395,4.407404 -1.110525,1.983859 -6.81853,7.323606 -1.0468606,0.979321 -2.2480086,1.786057 -3.2829954,2.777919 -5.83264981,5.589623 0.7925538,0.609496 -7.576144,6.81853 -0.975003,0.723389 -2.0647619,1.284537 -3.0304576,2.020305 -0.8062925,0.614318 -1.4883184,1.378421 -2.2728432,2.020305 -1.0685599,0.874276 -2.1993517,1.669873 -3.2829958,2.525381 -1.771308,1.398401 -1.03232,0.953833 -2.525381,2.020305 -0.246979,0.176414 -0.89335,0.776547 -0.757615,0.505076 0.473928,-0.947854 2.437107,-1.798162 3.0304579,-2.272843 0.650724,-0.520579 1.1785113,-1.178511 1.7677669,-1.767767 1.0943319,-0.841793 2.1957314,-1.674478 3.2829958,-2.525381 2.6546284,-2.077535 3.5327597,-2.843456 6.3134533,-5.303301 0.9373066,-0.829156 1.8717214,-1.662335 2.7779195,-2.525381 0.862069,-0.821018 1.6356084,-1.734472 2.5253814,-2.525382 1.3855911,-1.231636 2.9075571,-2.303897 4.2931482,-3.535533 0.681853,-0.606092 3.697158,-3.757768 4.545686,-4.545687 0.481784,-0.447371 1.010153,-0.841794 1.515229,-1.26269 0.505077,-0.420897 1.016047,-0.834821 1.515229,-1.262691 0.09039,-0.07747 0.336718,-0.336718 0.252538,-0.252538 -0.252538,0.252538 -0.505076,0.505076 -0.757614,0.757614 -0.336718,0.336718 -0.62615,0.728551 -1.010153,1.010153 -0.885081,0.64906 -1.84994,1.181675 -2.777919,1.767767 -0.671442,0.424068 -1.400181,0.766591 -2.020305,1.26269 -7.2784809,5.822785 5.874243,-3.364469 -5.050763,3.535534 -0.5558768,0.35108 -0.9835156,0.87599 -1.5152288,1.262691 -1.4846052,1.079713 -0.9010504,0.439615 -2.2728432,1.26269 -0.1020825,0.06125 -0.1683587,0.336718 -0.2525381,0.252539 -0.084179,-0.08418 0.1595775,-0.17817 0.2525381,-0.252539 0.3286653,-0.262932 0.6814873,-0.494682 1.0101526,-0.757614 0.6337852,-0.507028 2.7603339,-2.313331 3.2829957,-2.777919 0.9605482,-0.853821 3.6091257,-3.327006 4.7982247,-4.293149 0.653328,-0.530829 1.376407,-0.972999 2.020305,-1.515228 0.957222,-0.806083 1.820697,-1.7193 2.777919,-2.525382 4.254372,-3.582629 -0.12658,0.631656 3.788072,-3.282996 4.788106,-4.788105 -0.04397,-0.282698 3.282996,-2.777919 0.285714,-0.214286 0.534509,-0.478733 0.757615,-0.757614 0.117586,-0.146984 0.440769,-0.505077 0.252538,-0.505077 -0.241328,0 -0.982803,1.224401 -1.010153,1.262691 -0.244641,0.342498 -0.544211,0.647367 -0.757614,1.010152 -0.630172,1.071293 -1.172605,2.191865 -1.767767,3.282996 -0.415012,0.760855 -0.845022,1.513445 -1.262691,2.272843 -1.84938,3.36251 -1.924966,3.450696 -3.788072,7.576144 -0.450412,0.997342 -0.77329,2.051658 -1.262691,3.030458 -0.607026,1.214052 -1.386749,2.335113 -2.020305,3.535534 -0.966441,1.831153 -1.772376,3.745862 -2.777919,5.555839 -2.2123982,3.982317 -2.2312784,2.923886 -4.2931484,6.81853 -0.9161065,1.730423 -1.6287195,3.562722 -2.5253813,5.3033 -3.87641933,7.524814 0.1738431,-1.551648 -3.0304576,6.313454 -3.1890839,7.827751 -0.66568585,0.527616 -1.76776697,5.303301 -0.63817553,2.765427 -0.50507623,0.310135 -0.50507623,2.777919 0,0.08418 -0.059524,0.193014 0,0.252538 0.36547658,0.365476 0.80718376,0.252536 1.26269063,0.252536 0.25253814,0 0.51479294,0.0694 0.75761437,0 0.3619769,-0.10342 0.6690094,-0.345874 1.0101526,-0.505074 9.0095549,-4.204459 -2.9048621,1.597674 5.0507627,-2.777919 0.8912371,-0.490181 1.9259494,-0.707058 2.7779194,-1.262691 1.1013938,-0.718301 1.9730268,-1.743802 3.0304578,-2.525381 0.882635,-0.652383 1.86469,-1.158948 2.777919,-1.767767 2.897604,-1.931736 2.730545,-1.984774 5.808377,-4.293149 0.579311,-0.434483 1.178512,-0.841793 1.767767,-1.26269 0.589256,-0.420897 1.139039,-0.903418 1.767767,-1.262691 5.662588,-3.235764 -0.356065,0.430571 2.525382,-1.010153 0.106479,-0.05324 0.281411,-0.368031 0.252538,-0.252538 -0.109946,0.439785 -0.350158,0.836664 -0.505076,1.262691 -0.181943,0.500343 -0.254537,1.045467 -0.505077,1.515229 -0.428489,0.803417 -1.040428,1.495896 -1.515229,2.272843 -0.45193,0.739522 -0.7884,1.547459 -1.26269,2.272843 -3.230592,4.940906 -2.360101,3.168499 -5.303301,7.323606 -0.701743,0.990696 -1.253421,2.089282 -2.020305,3.030461 -1.091036,1.339 -2.366111,2.51696 -3.535534,3.78807 -0.766779,0.83345 -1.49523,1.70202 -2.272843,2.52538 -0.653927,0.69239 -1.3653104,1.32892 -2.0203053,2.02031 -0.7311454,0.77176 -3.4147254,3.74411 -4.2931483,4.79822 -0.2694516,0.32334 -0.4779857,0.69557 -0.7576144,1.01015 -0.3954546,0.44489 -0.8816285,0.80542 -1.2626907,1.26269 -0.05389,0.0647 -0.079859,0.27916 0,0.25254 0.2879378,-0.096 0.5050763,-0.33672 0.7576144,-0.50508 0.5050763,-0.33671 1.0046115,-0.68189 1.5152289,-1.01015 0.668019,-0.42944 1.3809726,-0.7916 2.020305,-1.26269 2.4922193,-1.83637 2.9303935,-2.42532 5.0507624,-4.54568 0.673435,-0.67344 1.314081,-1.38134 2.020305,-2.02031 1.063009,-0.96177 2.269342,-1.76427 3.282996,-2.77792 0.762277,-0.76228 1.301486,-1.72199 2.020305,-2.52538 0.714423,-0.79847 1.556096,-1.47646 2.272843,-2.272844 0.800359,-0.889287 1.426851,-1.931927 2.272844,-2.777919 0.512043,-0.512044 1.255723,-0.750648 1.767767,-1.262691 0.34708,-0.347081 0.443382,-0.885613 0.757614,-1.262691 0.120502,-0.144603 0.371977,-0.385637 0.505076,-0.252538 0.1331,0.133099 -0.17839,0.332065 -0.252538,0.505076 -1.73836,4.056173 1.281589,-2.621397 -1.515229,3.282996 -0.435425,0.919231 -0.739374,1.905726 -1.26269,2.777921 -0.745133,1.24189 -1.753721,2.30995 -2.525382,3.53553 -1.959161,3.11161 -1.390984,3.23914 -3.535534,6.06092 -0.939204,1.23579 -2.067008,2.31854 -3.030457,3.53553 -0.637797,0.80564 -1.131058,1.71888 -1.767767,2.52538 -0.500526,0.634 -4.6206778,5.12576 -4.7982247,5.3033 -3.2362292,2.77391 -0.4498064,0.21521 -3.0304576,3.03046 -0.4826605,0.52654 -1.0101525,1.01015 -1.5152288,1.51523 -0.1683588,0.16836 -0.3730048,0.30697 -0.5050763,0.50508 -0.046694,0.07 -0.084179,0.25253 0,0.25253 0.1926653,0 1.1512766,-0.68798 1.2626907,-0.75761 0.4162365,-0.26015 0.8336141,-0.51924 1.2626907,-0.75761 2.8074866,-1.55972 5.694509,-2.95075 8.333758,-4.79823 0.786293,-0.5504 1.469526,-1.24252 2.272844,-1.76777 1.389601,-0.90858 2.873964,-1.66373 4.293148,-2.52538 5.91826,-3.59323 -0.834345,0.18522 7.576144,-4.54568 1.083276,-0.60935 2.20941,-1.14151 3.282996,-1.76777 0.948053,-0.55303 1.851946,-1.17851 2.777919,-1.76777 1.010153,-0.75761 1.947709,-1.62319 3.030458,-2.27284 0.616733,-0.37004 1.377007,-0.43597 2.020305,-0.75761 0.376461,-0.18824 0.644712,-0.5488 1.010152,-0.75762 0.231125,-0.13207 0.51952,-0.13349 0.757615,-0.25254 0.07529,-0.0376 -0.182497,-0.0467 -0.252538,0 -0.198108,0.13207 -0.350126,0.3243 -0.505077,0.50508 -1.085758,1.26672 -1.073835,1.46991 -2.272843,2.77792 -0.48266,0.52654 -1.023982,0.99669 -1.515229,1.51523 -2.162954,1.21898 -2.949961,3.60784 -4.545686,5.3033 -0.776188,0.8247 -1.72457,1.47203 -2.525381,2.27284 -0.968978,0.96898 -1.783117,2.08801 -2.77792,3.03046 -0.611102,0.57894 -1.358387,0.99515 -2.020305,1.51523 -3.142697,2.46926 0.02806,-0.0281 -2.777919,2.77792 -0.214617,0.21461 -0.542999,0.29046 -0.757615,0.50507 -0.05952,0.0595 0.193014,0.0595 0.252538,0 1.746722,-1.74672 -1.557318,0.37881 2.020305,-1.76776 3.229189,-1.93752 1.985033,-0.72738 5.555839,-3.78808 0.723102,-0.6198 1.268541,-1.4356 2.020305,-2.0203 0.774901,-0.6027 1.780026,-0.87635 2.525382,-1.51523 1.04044,-0.89181 1.808942,-2.06148 2.777919,-3.03046 0.790428,-0.79043 3.082337,-2.69704 4.04061,-3.53553 0.762853,-0.6675 1.50322,-1.36063 2.272844,-2.02031 0.409247,-0.35078 0.881552,-0.62901 1.26269,-1.01015 0.104176,-0.10417 0.264351,-0.99834 0.757615,-0.50507 0.119047,0.11904 0.05324,0.34535 0,0.50507 -0.119048,0.35714 -0.327918,0.67798 -0.505077,1.01015 -0.496359,0.93068 -1.006918,1.85372 -1.515228,2.77792 -2.129216,3.8713 -0.336142,0.70861 -2.77792,4.54569 -0.689854,1.08406 -1.34397,2.19045 -2.020305,3.283 -0.418003,0.67523 -0.801102,1.37408 -1.262691,2.0203 -2.765948,3.87233 0.28745,-1.15252 -2.525381,3.53553 -0.09684,0.16141 -0.148126,0.34846 -0.252538,0.50508 -0.06604,0.0991 -0.252538,0.13349 -0.252538,0.25254 0,0.0842 0.172678,0.0266 0.252538,0 0.430057,-0.14335 0.832634,-0.36173 1.262691,-0.50508 0.581386,-0.19379 1.207751,-0.25618 1.767767,-0.50507 1.321173,-0.58719 3.505199,-1.94126 4.798224,-2.77792 3.352621,-2.16935 1.457356,-0.95117 5.050763,-3.78808 0.660709,-0.52161 1.358387,-0.99515 2.020305,-1.51522 0.516974,-0.4062 1.004963,-0.8481 1.515229,-1.26269 0.836668,-0.6798 1.706886,-1.31874 2.525381,-2.02031 0.361551,-0.3099 0.673435,-0.67343 1.010153,-1.01015 0.10851,-0.10851 0.850433,-1.01015 1.26269,-1.01015 0.08418,0 0.03126,0.17437 0,0.25253 -0.139814,0.34954 -0.336717,0.67344 -0.505076,1.01016 -0.252538,0.50507 -0.505076,1.01015 -0.757614,1.51522 -0.336718,0.67344 -0.673436,1.34687 -1.010153,2.02031 -0.252538,0.75761 -0.413056,1.5524 -0.757614,2.27284 -2.917192,6.09958 -1.006691,1.28777 -3.282996,5.55584 -0.30169,0.56567 -0.500653,1.18043 -0.757615,1.76777 -0.332307,0.75956 -0.63938,1.5313 -1.010152,2.27284 -0.135735,0.27147 -0.369341,0.48615 -0.505076,0.75762 -0.03765,0.0753 -0.08418,0.25253 0,0.25253 0.119047,0 0.1573,-0.1811 0.252538,-0.25253 0.24281,-0.18211 0.475809,-0.39236 0.757614,-0.50508 4.770805,-1.90832 -2.237522,1.79708 4.545687,-2.27284 0.743171,-0.44591 1.540075,-0.79989 2.272843,-1.26269 0.868774,-0.5487 1.676399,-1.18892 2.525381,-1.76777 1.003083,-0.68392 2.04861,-1.30623 3.030458,-2.02031 0.871835,-0.63406 1.648158,-1.39371 2.525381,-2.0203 0.893125,-0.63795 1.851946,-1.17851 2.77792,-1.76777 1.010152,-0.75761 2.020305,-1.51523 3.030457,-2.27284 0.615129,-0.46135 2.683363,-2.07089 3.535534,-2.52538 0.731533,-0.39015 1.507547,-0.69128 2.272843,-1.01015 0.245722,-0.10239 0.499364,-0.18798 0.757615,-0.25254 0.08167,-0.0204 0.225918,-0.0799 0.252538,0 0.185106,0.55531 -0.115259,1.01187 -0.252538,1.51523 -1.008784,3.69887 0.08996,0.40643 -1.262691,3.78807 -0.821368,2.05342 -1.309011,3.62817 -2.272843,5.55584 -0.303513,0.60702 -0.690776,1.16893 -1.010153,1.76776 -0.354317,0.66435 -0.720566,1.3253 -1.010152,2.02031 -0.133493,0.32038 -0.18447,0.66981 -0.252538,1.01015 -0.01651,0.0825 -0.05952,0.19302 0,0.25254 0.05952,0.0595 0.168358,0 0.252538,0 0.602404,0 1.202949,0.0613 1.767767,-0.25254 0.47118,-0.26177 0.831482,-0.68674 1.26269,-1.01015 0.579311,-0.43448 1.151049,-0.88317 1.767767,-1.26269 2.409315,-1.48266 1.098059,0.0493 4.04061,-2.52538 0.584072,-0.51107 0.988819,-1.19749 1.515229,-1.76777 4.009283,-4.34339 -1.293975,1.54487 3.535534,-3.03046 0.994803,-0.94244 1.783117,-2.08801 2.77792,-3.03046 0.611102,-0.57893 1.366977,-0.9844 2.020305,-1.51522 0.694497,-0.56428 1.367486,-1.15575 2.020305,-1.76777 0.694797,-0.65137 1.34687,-1.34687 2.020305,-2.02031 0.344345,-0.34434 1.362761,-1.59146 2.020305,-1.26269 0.07529,0.0376 0.01651,0.17 0,0.25254 -0.06807,0.34034 -0.105763,0.69564 -0.252538,1.01015 -4.218922,9.04055 0.726266,-2.53641 -2.525382,5.05077 -0.673438,1.57135 -2.375272,5.81109 -3.030457,7.07106 -0.42008,0.80785 -1.12544,1.44996 -1.515229,2.27285 -3.057768,6.45528 1.841884,-1.37387 -2.272843,4.79822 -0.168359,0.25254 -0.369341,0.48615 -0.505076,0.75762 -0.03765,0.0753 -0.08418,0.25253 0,0.25253 0.18823,0 0.360473,-0.13203 0.505076,-0.25253 0.365819,-0.30485 0.691598,-0.65621 1.010152,-1.01016 0.439819,-0.48868 0.841794,-1.01015 1.262691,-1.51522 0.841794,-1.01016 1.728481,-1.98453 2.525381,-3.03046 0.443198,-0.5817 3.052482,-4.64398 3.282996,-5.05077 0.891075,-1.57248 1.617818,-3.23519 2.525381,-4.79822 0.609619,-1.0499 1.373442,-2.00309 2.020306,-3.03046 0.784587,-1.24611 1.504988,-2.53158 2.272843,-3.78807 1.084131,-1.77404 2.181091,-3.54025 3.282991,-5.3033 1.4235,-2.277585 2.89666,-4.524292 4.29315,-6.81853 0.96093,-1.578658 1.82707,-3.213478 2.77792,-4.798224 5.61689,-9.361488 -1.5904,3.168272 3.03046,-5.303301 0.56,-1.026662 1.24477,-1.984463 1.76777,-3.030458 1.91349,-3.826977 -0.24152,-0.278266 1.26269,-3.788072 0.26734,-0.623801 0.70664,-1.160741 1.01015,-1.767767 0.11905,-0.238095 0.16836,-0.505076 0.25254,-0.757614 0.0842,-0.252538 0.16836,-0.505076 0.25254,-0.757615 0.0842,-0.252538 0.18797,-0.499363 0.25253,-0.757614 0.0204,-0.08167 0.0595,-0.312062 0,-0.252538 -0.13309,0.133099 -0.15569,0.34367 -0.25253,0.505076 -0.34971,0.582849 -1.12237,1.627444 -1.51523,2.020305 -0.38114,0.381139 -0.85983,0.652053 -1.26269,1.010153 -3.61253,3.211131 3.4276,-2.444432 -3.53554,2.777919 -0.52597,0.394477 -0.96818,0.897997 -1.51523,1.262691 -0.46985,0.313235 -1.05094,0.436186 -1.51522,0.757614 -0.6381,0.441762 -1.1469,1.049572 -1.76777,1.515229 -0.39268,0.294508 -0.86327,0.472316 -1.26269,0.757614 -0.19375,0.138391 -0.33672,0.336718 -0.50508,0.505077 -0.0842,0.08418 -0.16836,0.336717 -0.25254,0.252538 -0.37568,-0.375688 0.41226,-0.905729 0.50508,-1.010153 0.51561,-0.580061 1.01392,-1.175306 1.51523,-1.767767 2.57207,-3.039717 -0.051,0.08615 2.52538,-3.282995 0.65484,-0.856336 1.38913,-1.651452 2.0203,-2.525382 0.46497,-0.643798 0.78621,-1.384987 1.2627,-2.020305 3.50079,-4.667729 0.12712,0.296599 3.28299,-3.535534 0.72786,-0.883831 1.29244,-1.894087 2.02031,-2.777919 3.45149,-4.191101 -0.29637,1.068586 2.77792,-3.030458 2.6727,-3.563609 0.87943,-1.419315 2.52538,-3.535534 0.94787,-1.218688 0.97685,-1.016632 1.51523,-2.272843 0.10486,-0.244675 0.13349,-0.519519 0.25253,-0.757614 0.0532,-0.10648 0.16836,-0.336718 0.25254,-0.252538 0.11905,0.119047 0,0.336717 0,0.505076 0,0.420897 0.10208,0.854361 0,1.262691 -0.17444,0.697754 -0.57229,1.325361 -0.75761,2.020305 -0.15337,0.575139 -0.15468,1.180627 -0.25254,1.767767 -0.19913,1.194751 -0.67993,3.104983 -1.01015,4.04061 -0.18794,0.532499 -0.54043,0.993974 -0.75762,1.515229 -1.04534,2.508817 0.14421,0.70627 -1.51523,3.788072 -0.19954,0.370587 -0.51297,0.667654 -0.75761,1.010152 -0.47351,0.662913 -1.07329,1.704633 -1.51523,2.272843 -0.36544,0.469853 -0.90555,0.786501 -1.26269,1.262691 -0.11294,0.150585 -0.11944,0.371977 -0.25254,0.505076 -0.1331,0.1331 -0.37198,0.119439 -0.50507,0.252538 -0.20611,0.206105 -0.5394,1.224276 -0.75762,1.515229 -0.28571,0.380953 -0.72444,0.6292 -1.01015,1.010153 -0.55638,0.127176 -0.13349,0.519519 -0.25254,0.757614 -0.0532,0.10648 -0.1993,0.146059 -0.25254,0.252538 -0.37158,0.743172 0.58503,-0.332487 -0.25254,0.505077"
       id="path4253"
       inkscape:connector-curvature="0"
       transform="translate(712.21887,710.44042)" />
    <path
       style="fill:#ffffff;fill-opacity:1;fill-rule:evenodd;stroke:none"
       d="m 802.63735,758.498 c 2.05357,34.91071 -3.92857,57.32143 -3.92857,57.32143 l -15.71429,1.96428 -21.42857,-0.89285 -10.71428,-2.14286 c 0,0 -5.79088,0.15723 -7.5,-10.89286 -0.13648,-0.88237 0,-0.89286 0,-0.89286 l -2.32143,-19.28571 1.25,-24.10714 10.71428,-5.53572 14.10715,-4.82143 17.5,0.89286 15.53571,5.35714 2.5,3.03572 z"
       id="path2525"
       sodipodi:nodetypes="cccccscccccccc"
       inkscape:connector-curvature="0" />
    <rect
       style="fill:#009900;fill-opacity:1;fill-rule:nonzero;stroke:url(#radialGradient2551);stroke-width:4.75958157;stroke-linejoin:round;stroke-miterlimit:4;stroke-opacity:1;stroke-dasharray:none"
       id="rect2527"
       width="45.966213"
       height="68.097748"
       x="751.15356"
       y="750.53357"
       ry="25.874914"
       rx="17.903507" />
    <path
       style="fill:#000000;fill-rule:evenodd;stroke:#000000;stroke-width:1px;stroke-linecap:butt;stroke-linejoin:round;stroke-opacity:1"
       d="m 723.82018,760.78675 c 5.55213,0.89734 19.19072,2.8183 19.19072,2.8183 0,0 14.01303,-12.01845 31.85859,-11.87718 22.52404,0.17653 30.39818,11.82713 32.7346,9.36449 3.25267,-3.42838 -9.52956,-15.51537 -33.20006,-15.83639 -20.19647,-0.27875 -27.54014,13.30897 -33.79224,10.64512 -9.91206,-4.22325 -4.61957,-3.79592 -13.36485,-6.8623 -1.93437,-0.67825 8.611,4.89783 10.48047,8.84445 0.29407,0.62081 0.76885,0.82007 0.24513,0.63936 -31.81307,-10.97693 -0.81482,1.55072 -1.72181,1.70653 -4.23746,0.72796 -14.98156,0.35546 -12.43055,0.55762 z"
       id="path2529"
       sodipodi:nodetypes="ccssssssssc"
       inkscape:connector-curvature="0" />
    <path
       sodipodi:type="arc"
       style="fill:#ffffff;fill-opacity:0;fill-rule:nonzero;stroke:url(#radialGradient2543);stroke-width:10.45861149;stroke-linecap:round;stroke-linejoin:bevel;stroke-miterlimit:4;stroke-opacity:1;stroke-dasharray:none;filter:url(#filter3316)"
       id="path2531"
       sodipodi:cx="96.428574"
       sodipodi:cy="583.61218"
       sodipodi:rx="14.285714"
       sodipodi:ry="13.571428"
       d="m 110.70819,583.21586 c 0.23041,7.49209 -5.97601,13.74308 -13.862431,13.96196 -7.886417,0.21889 -14.466402,-5.67722 -14.696807,-13.16931 -0.0052,-0.16976 -0.0071,-0.33959 -0.0056,-0.50941"
       sodipodi:start="6.2539782"
       sodipodi:end="9.4331108"
       sodipodi:open="true"
       transform="matrix(1.0453168,0,0,1.0799122,673.06465,166.03817)" />
    <rect
       style="fill:none;stroke:#ffffff;stroke-width:9.21081448;stroke-linecap:round;stroke-linejoin:bevel;stroke-miterlimit:4;stroke-opacity:1;stroke-dasharray:none;filter:url(#filter3299)"
       id="rect2533"
       width="15.005478"
       height="3.4592929"
       x="753.21216"
       y="767.79321"
       rx="6.4313102"
       ry="1.7296464" />
    <path
       style="fill:none;stroke:#000000;stroke-width:4;stroke-linecap:round;stroke-linejoin:miter;stroke-miterlimit:4;stroke-opacity:1;stroke-dasharray:none"
       d="m 751.21659,815.18335 c 7.90117,2.62139 39.52435,3.70645 47.89155,0.10677"
       id="path2535"
       sodipodi:nodetypes="cc"
       inkscape:connector-curvature="0" />
    <path
       style="fill:none;stroke:#000000;stroke-width:4;stroke-linecap:round;stroke-linejoin:miter;stroke-miterlimit:4;stroke-opacity:1;stroke-dasharray:none"
       d="m 742.20444,759.11987 c -0.55185,6.46097 -1.97843,21.36595 -0.66496,31.91097 0.79124,6.35239 0.85187,11.05972 1.98892,11.80658"
       id="path2537"
       sodipodi:nodetypes="csc"
       inkscape:connector-curvature="0" />
    <path
       style="fill:#000000;fill-rule:evenodd;stroke:#000000;stroke-width:0.99909359px;stroke-linecap:butt;stroke-linejoin:miter;stroke-opacity:1"
       d="m 721.25411,733.11268 c 3.19758,-3.90749 32.02822,-16.42938 63.7098,-9.44103 16.11794,3.16141 38.30837,18.37366 37.22742,22.37723 -8.98903,-2.91107 -9.45579,-12.30316 -43.14557,-20.45406 -12.91874,-3.12556 -41.08627,1.42545 -57.79165,7.51786 z"
       id="path2539"
       sodipodi:nodetypes="cccsc"
       inkscape:connector-curvature="0" />
  </g>
</svg>
